<svg xmlns="http://www.w3.org/2000/svg" xmlns:xlink="http://www.w3.org/1999/xlink" width="200" zoomAndPan="magnify" viewBox="0 0 150 52.499999" height="70" preserveAspectRatio="xMidYMid meet" version="1.0"><defs><g/></defs><g fill="#000000" fill-opacity="1"><g transform="translate(0.719491, 31.3591)"><g><path d="M 2.15625 -0.1875 L 2.15625 -2.015625 L 2.875 -1.78125 C 3.875 -1.445312 4.675781 -1.28125 5.28125 -1.28125 C 6.300781 -1.28125 7.015625 -1.546875 7.421875 -2.078125 C 7.828125 -2.617188 8.03125 -3.5625 8.03125 -4.90625 L 8.03125 -12.421875 L 3.171875 -12.421875 L 3.171875 -14.046875 L 10.1875 -14.046875 L 10.1875 -6.046875 C 10.1875 -4.628906 10.101562 -3.570312 9.9375 -2.875 C 9.769531 -2.1875 9.453125 -1.578125 8.984375 -1.046875 C 8.148438 -0.117188 6.960938 0.34375 5.421875 0.34375 C 4.578125 0.34375 3.488281 0.164062 2.15625 -0.1875 Z M 2.15625 -0.1875 "/></g></g></g><g fill="#000000" fill-opacity="1"><g transform="translate(14.225716, 31.3591)"><g><path d="M 9.140625 -1.4375 C 7.835938 -0.34375 6.535156 0.203125 5.234375 0.203125 C 4.148438 0.203125 3.253906 -0.101562 2.546875 -0.71875 C 1.835938 -1.34375 1.484375 -2.128906 1.484375 -3.078125 C 1.484375 -4.304688 2.03125 -5.296875 3.125 -6.046875 C 4.21875 -6.804688 5.664062 -7.1875 7.46875 -7.1875 L 8.796875 -7.1875 L 8.796875 -8.203125 C 8.796875 -9.035156 8.609375 -9.628906 8.234375 -9.984375 C 7.867188 -10.347656 7.257812 -10.53125 6.40625 -10.53125 C 5.144531 -10.53125 3.847656 -10.179688 2.515625 -9.484375 L 2.515625 -11.328125 C 4.046875 -11.878906 5.492188 -12.15625 6.859375 -12.15625 C 8.359375 -12.15625 9.414062 -11.851562 10.03125 -11.25 C 10.65625 -10.644531 10.96875 -9.613281 10.96875 -8.15625 L 10.96875 -3.171875 C 10.96875 -2.460938 11.046875 -1.976562 11.203125 -1.71875 C 11.359375 -1.457031 11.640625 -1.328125 12.046875 -1.328125 C 12.191406 -1.328125 12.425781 -1.363281 12.75 -1.4375 L 12.9375 -0.140625 C 12.21875 0.0859375 11.664062 0.203125 11.28125 0.203125 C 10.226562 0.203125 9.515625 -0.34375 9.140625 -1.4375 Z M 8.796875 -2.828125 L 8.796875 -5.828125 L 8.15625 -5.828125 C 5.195312 -5.828125 3.71875 -5.03125 3.71875 -3.4375 C 3.71875 -2.863281 3.90625 -2.398438 4.28125 -2.046875 C 4.664062 -1.691406 5.171875 -1.515625 5.796875 -1.515625 C 6.742188 -1.515625 7.742188 -1.953125 8.796875 -2.828125 Z M 8.796875 -2.828125 "/></g></g></g><g fill="#000000" fill-opacity="1"><g transform="translate(27.731941, 31.3591)"><g><path d="M 1.015625 0 L 1.015625 -11.890625 L 2.984375 -11.890625 L 2.984375 -9.53125 C 3.421875 -10.53125 3.828125 -11.21875 4.203125 -11.59375 C 4.578125 -11.96875 5.054688 -12.15625 5.640625 -12.15625 C 6.890625 -12.15625 7.585938 -11.28125 7.734375 -9.53125 C 8.441406 -11.28125 9.332031 -12.15625 10.40625 -12.15625 C 11.800781 -12.15625 12.5 -11.003906 12.5 -8.703125 L 12.5 0 L 10.546875 0 L 10.546875 -8.21875 C 10.546875 -9.039062 10.5 -9.585938 10.40625 -9.859375 C 10.3125 -10.128906 10.117188 -10.265625 9.828125 -10.265625 C 9.484375 -10.265625 9.113281 -10.003906 8.71875 -9.484375 C 8.320312 -8.960938 7.992188 -8.304688 7.734375 -7.515625 L 7.734375 0 L 5.78125 0 L 5.78125 -8.21875 C 5.78125 -9.039062 5.734375 -9.585938 5.640625 -9.859375 C 5.546875 -10.128906 5.351562 -10.265625 5.0625 -10.265625 C 4.71875 -10.265625 4.351562 -10.007812 3.96875 -9.5 C 3.582031 -9 3.253906 -8.335938 2.984375 -7.515625 L 2.984375 0 Z M 1.015625 0 "/></g></g></g><g fill="#000000" fill-opacity="1"><g transform="translate(41.238166, 31.3591)"><g><path d="M 12.015625 -0.46875 C 10.523438 0.03125 9.148438 0.28125 7.890625 0.28125 C 5.859375 0.28125 4.289062 -0.242188 3.1875 -1.296875 C 2.09375 -2.359375 1.546875 -3.863281 1.546875 -5.8125 C 1.546875 -7.65625 2.070312 -9.171875 3.125 -10.359375 C 4.175781 -11.554688 5.519531 -12.15625 7.15625 -12.15625 C 8.789062 -12.15625 9.992188 -11.660156 10.765625 -10.671875 C 11.546875 -9.691406 11.9375 -8.160156 11.9375 -6.078125 L 11.9375 -5.390625 L 3.84375 -5.390625 C 4 -2.691406 5.453125 -1.34375 8.203125 -1.34375 C 9.359375 -1.34375 10.628906 -1.617188 12.015625 -2.171875 Z M 3.90625 -7 L 9.640625 -7 L 9.640625 -7.3125 C 9.640625 -9.457031 8.75 -10.53125 6.96875 -10.53125 C 6.101562 -10.53125 5.398438 -10.21875 4.859375 -9.59375 C 4.328125 -8.976562 4.007812 -8.113281 3.90625 -7 Z M 3.90625 -7 "/></g></g></g><g fill="#000000" fill-opacity="1"><g transform="translate(54.74439, 31.3591)"><g><path d="M 2.046875 -0.484375 L 2.046875 -2.4375 C 3.710938 -1.707031 5.15625 -1.34375 6.375 -1.34375 C 7.25 -1.34375 7.972656 -1.519531 8.546875 -1.875 C 9.128906 -2.226562 9.421875 -2.675781 9.421875 -3.21875 C 9.421875 -3.914062 8.738281 -4.484375 7.375 -4.921875 L 5.0625 -5.671875 C 3.257812 -6.253906 2.359375 -7.285156 2.359375 -8.765625 C 2.359375 -9.847656 2.765625 -10.679688 3.578125 -11.265625 C 4.398438 -11.859375 5.554688 -12.15625 7.046875 -12.15625 C 8.148438 -12.15625 9.441406 -11.984375 10.921875 -11.640625 L 10.921875 -9.890625 C 9.492188 -10.316406 8.203125 -10.53125 7.046875 -10.53125 C 6.242188 -10.53125 5.601562 -10.382812 5.125 -10.09375 C 4.65625 -9.8125 4.421875 -9.429688 4.421875 -8.953125 C 4.421875 -8.359375 4.957031 -7.878906 6.03125 -7.515625 L 8.765625 -6.5625 C 10.617188 -5.90625 11.546875 -4.859375 11.546875 -3.421875 C 11.546875 -2.296875 11.082031 -1.394531 10.15625 -0.71875 C 9.226562 -0.0507812 7.976562 0.28125 6.40625 0.28125 C 5.050781 0.28125 3.597656 0.0234375 2.046875 -0.484375 Z M 2.046875 -0.484375 "/></g></g></g><g fill="#000000" fill-opacity="1"><g transform="translate(68.250615, 31.3591)"><g/></g></g><g fill="#000000" fill-opacity="1"><g transform="translate(81.75684, 31.3591)"><g><path d="M 1.625 0 L 1.625 -14.046875 L 3.78125 -14.046875 L 3.78125 -7.90625 L 9.71875 -7.90625 L 9.71875 -14.046875 L 11.890625 -14.046875 L 11.890625 0 L 9.71875 0 L 9.71875 -6.28125 L 3.78125 -6.28125 L 3.78125 0 Z M 1.625 0 "/></g></g></g><g fill="#000000" fill-opacity="1"><g transform="translate(95.263065, 31.3591)"><g><path d="M 12.015625 -0.46875 C 10.523438 0.03125 9.148438 0.28125 7.890625 0.28125 C 5.859375 0.28125 4.289062 -0.242188 3.1875 -1.296875 C 2.09375 -2.359375 1.546875 -3.863281 1.546875 -5.8125 C 1.546875 -7.65625 2.070312 -9.171875 3.125 -10.359375 C 4.175781 -11.554688 5.519531 -12.15625 7.15625 -12.15625 C 8.789062 -12.15625 9.992188 -11.660156 10.765625 -10.671875 C 11.546875 -9.691406 11.9375 -8.160156 11.9375 -6.078125 L 11.9375 -5.390625 L 3.84375 -5.390625 C 4 -2.691406 5.453125 -1.34375 8.203125 -1.34375 C 9.359375 -1.34375 10.628906 -1.617188 12.015625 -2.171875 Z M 3.90625 -7 L 9.640625 -7 L 9.640625 -7.3125 C 9.640625 -9.457031 8.75 -10.53125 6.96875 -10.53125 C 6.101562 -10.53125 5.398438 -10.21875 4.859375 -9.59375 C 4.328125 -8.976562 4.007812 -8.113281 3.90625 -7 Z M 3.90625 -7 "/></g></g></g><g fill="#000000" fill-opacity="1"><g transform="translate(108.769289, 31.3591)"><g><path d="M 9.140625 -1.4375 C 7.835938 -0.34375 6.535156 0.203125 5.234375 0.203125 C 4.148438 0.203125 3.253906 -0.101562 2.546875 -0.71875 C 1.835938 -1.34375 1.484375 -2.128906 1.484375 -3.078125 C 1.484375 -4.304688 2.03125 -5.296875 3.125 -6.046875 C 4.21875 -6.804688 5.664062 -7.1875 7.46875 -7.1875 L 8.796875 -7.1875 L 8.796875 -8.203125 C 8.796875 -9.035156 8.609375 -9.628906 8.234375 -9.984375 C 7.867188 -10.347656 7.257812 -10.53125 6.40625 -10.53125 C 5.144531 -10.53125 3.847656 -10.179688 2.515625 -9.484375 L 2.515625 -11.328125 C 4.046875 -11.878906 5.492188 -12.15625 6.859375 -12.15625 C 8.359375 -12.15625 9.414062 -11.851562 10.03125 -11.25 C 10.65625 -10.644531 10.96875 -9.613281 10.96875 -8.15625 L 10.96875 -3.171875 C 10.96875 -2.460938 11.046875 -1.976562 11.203125 -1.71875 C 11.359375 -1.457031 11.640625 -1.328125 12.046875 -1.328125 C 12.191406 -1.328125 12.425781 -1.363281 12.75 -1.4375 L 12.9375 -0.140625 C 12.21875 0.0859375 11.664062 0.203125 11.28125 0.203125 C 10.226562 0.203125 9.515625 -0.34375 9.140625 -1.4375 Z M 8.796875 -2.828125 L 8.796875 -5.828125 L 8.15625 -5.828125 C 5.195312 -5.828125 3.71875 -5.03125 3.71875 -3.4375 C 3.71875 -2.863281 3.90625 -2.398438 4.28125 -2.046875 C 4.664062 -1.691406 5.171875 -1.515625 5.796875 -1.515625 C 6.742188 -1.515625 7.742188 -1.953125 8.796875 -2.828125 Z M 8.796875 -2.828125 "/></g></g></g><g fill="#000000" fill-opacity="1"><g transform="translate(122.275514, 31.3591)"><g><path d="M 6.484375 0 L 6.484375 -15.671875 L 1.890625 -15.671875 L 1.890625 -17.28125 L 8.65625 -17.28125 L 8.65625 0 Z M 6.484375 0 "/></g></g></g><g fill="#000000" fill-opacity="1"><g transform="translate(135.781739, 31.3591)"><g><path d="M 9.453125 0 L 9.453125 -2.234375 C 8.398438 -0.554688 7.101562 0.28125 5.5625 0.28125 C 4.21875 0.28125 3.15625 -0.238281 2.375 -1.28125 C 1.601562 -2.332031 1.21875 -3.753906 1.21875 -5.546875 C 1.21875 -7.515625 1.675781 -9.109375 2.59375 -10.328125 C 3.507812 -11.546875 4.710938 -12.15625 6.203125 -12.15625 C 7.484375 -12.15625 8.566406 -11.613281 9.453125 -10.53125 L 9.453125 -17.28125 L 11.609375 -17.28125 L 11.609375 0 Z M 9.453125 -8.90625 C 8.453125 -9.988281 7.46875 -10.53125 6.5 -10.53125 C 5.550781 -10.53125 4.816406 -10.113281 4.296875 -9.28125 C 3.773438 -8.445312 3.515625 -7.273438 3.515625 -5.765625 C 3.515625 -2.972656 4.34375 -1.578125 6 -1.578125 C 7.226562 -1.578125 8.378906 -2.335938 9.453125 -3.859375 Z M 9.453125 -8.90625 "/></g></g></g></svg>